<svg width="316" height="85" viewBox="0 0 316 85" fill="none" xmlns="http://www.w3.org/2000/svg">
<path d="M96.76 54V33H101.08V41.55H110.08V33H114.4V54H110.08V45.51H101.08V54H96.76ZM129.174 54.3C127.634 54.3 126.214 54.03 124.914 53.49C123.614 52.95 122.484 52.2 121.524 51.24C120.584 50.26 119.844 49.11 119.304 47.79C118.784 46.47 118.524 45.02 118.524 43.44C118.524 41.88 118.784 40.44 119.304 39.12C119.844 37.8 120.584 36.66 121.524 35.7C122.484 34.72 123.614 33.96 124.914 33.42C126.214 32.88 127.634 32.61 129.174 32.61C130.694 32.61 132.104 32.88 133.404 33.42C134.704 33.96 135.824 34.72 136.764 35.7C137.724 36.68 138.464 37.83 138.984 39.15C139.524 40.47 139.794 41.9 139.794 43.44C139.794 45 139.524 46.44 138.984 47.76C138.464 49.08 137.724 50.23 136.764 51.21C135.824 52.19 134.704 52.95 133.404 53.49C132.104 54.03 130.694 54.3 129.174 54.3ZM129.174 50.19C130.374 50.19 131.444 49.9 132.384 49.32C133.324 48.74 134.054 47.94 134.574 46.92C135.114 45.9 135.384 44.74 135.384 43.44C135.384 42.14 135.114 40.99 134.574 39.99C134.054 38.97 133.324 38.17 132.384 37.59C131.444 36.99 130.374 36.69 129.174 36.69C127.954 36.69 126.874 36.98 125.934 37.56C124.994 38.14 124.254 38.94 123.714 39.96C123.194 40.98 122.934 42.14 122.934 43.44C122.934 44.76 123.194 45.93 123.714 46.95C124.254 47.95 124.994 48.74 125.934 49.32C126.874 49.9 127.954 50.19 129.174 50.19ZM143.899 54V33H147.889L154.249 43.38L160.729 33H164.539V54H160.309V46.59C160.309 45.37 160.329 44.24 160.369 43.2C160.409 42.14 160.469 41.12 160.549 40.14L155.149 48.51H153.169L147.889 40.2C147.989 41.12 148.049 42.1 148.069 43.14C148.109 44.16 148.129 45.31 148.129 46.59V54H143.899ZM170.061 54V33H184.101V36.84H174.291V41.43H182.631V45.15H174.291V50.16H184.281V54H170.061ZM195.796 54.3C193.856 54.3 192.186 53.95 190.786 53.25C189.406 52.53 188.226 51.5 187.246 50.16L189.976 47.07C190.956 48.43 191.926 49.36 192.886 49.86C193.846 50.34 194.906 50.58 196.066 50.58C197.006 50.58 197.796 50.38 198.436 49.98C199.096 49.58 199.426 49.04 199.426 48.36C199.426 47.54 199.006 46.9 198.166 46.44C197.346 45.96 196.286 45.59 194.986 45.33C192.726 44.85 191.046 44.08 189.946 43.02C188.846 41.96 188.296 40.55 188.296 38.79C188.296 37.57 188.646 36.5 189.346 35.58C190.046 34.64 190.966 33.91 192.106 33.39C193.266 32.87 194.546 32.61 195.946 32.61C197.806 32.61 199.346 32.93 200.566 33.57C201.806 34.19 202.786 35.08 203.506 36.24L200.716 38.97C199.476 37.21 197.896 36.33 195.976 36.33C194.976 36.33 194.166 36.54 193.546 36.96C192.946 37.36 192.646 37.91 192.646 38.61C192.646 39.35 192.996 39.93 193.696 40.35C194.416 40.77 195.376 41.1 196.576 41.34C198.776 41.8 200.516 42.54 201.796 43.56C203.096 44.56 203.746 45.91 203.746 47.61C203.746 49.01 203.406 50.21 202.726 51.21C202.066 52.21 201.136 52.98 199.936 53.52C198.756 54.04 197.376 54.3 195.796 54.3ZM217.032 54.3C214.992 54.3 213.172 53.84 211.572 52.92C209.992 52 208.752 50.73 207.852 49.11C206.952 47.47 206.502 45.58 206.502 43.44C206.502 41.92 206.772 40.51 207.312 39.21C207.872 37.89 208.632 36.74 209.592 35.76C210.572 34.78 211.712 34.02 213.012 33.48C214.332 32.94 215.752 32.67 217.272 32.67C218.772 32.67 220.212 32.99 221.592 33.63C222.992 34.25 224.112 35.09 224.952 36.15L222.222 39.18C221.502 38.42 220.732 37.83 219.912 37.41C219.092 36.99 218.202 36.78 217.242 36.78C216.062 36.78 214.992 37.06 214.032 37.62C213.092 38.18 212.342 38.97 211.782 39.99C211.222 40.99 210.942 42.15 210.942 43.47C210.942 44.83 211.212 46.02 211.752 47.04C212.312 48.04 213.092 48.82 214.092 49.38C215.112 49.92 216.282 50.19 217.602 50.19C218.582 50.19 219.502 49.99 220.362 49.59C221.222 49.19 221.962 48.67 222.582 48.03L224.682 51.42C224.202 51.96 223.552 52.45 222.732 52.89C221.912 53.33 221.002 53.68 220.002 53.94C219.022 54.18 218.032 54.3 217.032 54.3ZM228.567 54V33H232.887V41.55H241.887V33H246.207V54H241.887V45.51H232.887V54H228.567ZM260.98 54.3C259.44 54.3 258.02 54.03 256.72 53.49C255.42 52.95 254.29 52.2 253.33 51.24C252.39 50.26 251.65 49.11 251.11 47.79C250.59 46.47 250.33 45.02 250.33 43.44C250.33 41.88 250.59 40.44 251.11 39.12C251.65 37.8 252.39 36.66 253.33 35.7C254.29 34.72 255.42 33.96 256.72 33.42C258.02 32.88 259.44 32.61 260.98 32.61C262.5 32.61 263.91 32.88 265.21 33.42C266.51 33.96 267.63 34.72 268.57 35.7C269.53 36.68 270.27 37.83 270.79 39.15C271.33 40.47 271.6 41.9 271.6 43.44C271.6 45 271.33 46.44 270.79 47.76C270.27 49.08 269.53 50.23 268.57 51.21C267.63 52.19 266.51 52.95 265.21 53.49C263.91 54.03 262.5 54.3 260.98 54.3ZM260.98 50.19C262.18 50.19 263.25 49.9 264.19 49.32C265.13 48.74 265.86 47.94 266.38 46.92C266.92 45.9 267.19 44.74 267.19 43.44C267.19 42.14 266.92 40.99 266.38 39.99C265.86 38.97 265.13 38.17 264.19 37.59C263.25 36.99 262.18 36.69 260.98 36.69C259.76 36.69 258.68 36.98 257.74 37.56C256.8 38.14 256.06 38.94 255.52 39.96C255 40.98 254.74 42.14 254.74 43.44C254.74 44.76 255 45.93 255.52 46.95C256.06 47.95 256.8 48.74 257.74 49.32C258.68 49.9 259.76 50.19 260.98 50.19ZM284.945 54.3C283.405 54.3 281.985 54.03 280.685 53.49C279.385 52.95 278.255 52.2 277.295 51.24C276.355 50.26 275.615 49.11 275.075 47.79C274.555 46.47 274.295 45.02 274.295 43.44C274.295 41.88 274.555 40.44 275.075 39.12C275.615 37.8 276.355 36.66 277.295 35.7C278.255 34.72 279.385 33.96 280.685 33.42C281.985 32.88 283.405 32.61 284.945 32.61C286.465 32.61 287.875 32.88 289.175 33.42C290.475 33.96 291.595 34.72 292.535 35.7C293.495 36.68 294.235 37.83 294.755 39.15C295.295 40.47 295.565 41.9 295.565 43.44C295.565 45 295.295 46.44 294.755 47.76C294.235 49.08 293.495 50.23 292.535 51.21C291.595 52.19 290.475 52.95 289.175 53.49C287.875 54.03 286.465 54.3 284.945 54.3ZM284.945 50.19C286.145 50.19 287.215 49.9 288.155 49.32C289.095 48.74 289.825 47.94 290.345 46.92C290.885 45.9 291.155 44.74 291.155 43.44C291.155 42.14 290.885 40.99 290.345 39.99C289.825 38.97 289.095 38.17 288.155 37.59C287.215 36.99 286.145 36.69 284.945 36.69C283.725 36.69 282.645 36.98 281.705 37.56C280.765 38.14 280.025 38.94 279.485 39.96C278.965 40.98 278.705 42.14 278.705 43.44C278.705 44.76 278.965 45.93 279.485 46.95C280.025 47.95 280.765 48.74 281.705 49.32C282.645 49.9 283.725 50.19 284.945 50.19ZM299.67 54V33H303.99V50.07H313.56V54H299.67Z" fill="black"/>
<rect y="50" width="60" height="60" rx="15" transform="rotate(-55 0 50)" fill="url(#paint0_linear_10_13)"/>
<path d="M54 40.6032C54 39.0907 52.9875 37.1532 51.75 36.2907L44.025 30.8782C42.275 29.6532 39.4625 29.7157 37.775 31.0282L31.0375 36.2782C29.9125 37.1532 29 39.0157 29 40.4282V49.6907C29 52.5907 31.3625 54.9657 34.2625 54.9657H48.7375C51.6375 54.9657 54 52.5907 54 49.7032V45.8282" stroke="white" stroke-width="3.5" stroke-linecap="round" stroke-linejoin="round"/>
<path d="M41.5 49.9658V46.2158" stroke="white" stroke-width="3.5" stroke-linecap="round" stroke-linejoin="round"/>
<defs>
<linearGradient id="paint0_linear_10_13" x1="30" y1="50" x2="30" y2="110" gradientUnits="userSpaceOnUse">
<stop stop-color="#917AEB"/>
<stop offset="0.552083" stop-color="#00C0ED"/>
<stop offset="1" stop-color="#917AEB"/>
</linearGradient>
</defs>
</svg>
